PathFileType	4	(X/Y/Z)	Run_200 02
DataRate	CameraRate	NumFrames	NumMarkers	Units	OrigDataRate	OrigDataStartFrame	OrigNumFrames
100	100	4	42	mm	100	239	128
Frame#	Time	RASI			LPSI			RPSI			RTH1			RTH2			RTH3			LTH1			LTH2			LTH3			RTB1			RTB2			RTB3			LTB1			LTB2			LTB3			RCAL			RTOE			RMT5			LCAL			LTOE			LMT5			LACR			RACR			C7			RUA1			RUA2			RUA3			RLEL			RMEL			LUA2			LUA3			LLEL			LMEL			RFAsuperior			RFAradius			RFAulna			LFAsuperior			LFAradius			LFAulna			LUA1			CLAV			LASI		
		X1	Y1	Z1	X2	Y2	Z2	X3	Y3	Z3	X4	Y4	Z4	X5	Y5	Z5	X6	Y6	Z6	X7	Y7	Z7	X8	Y8	Z8	X9	Y9	Z9	X10	Y10	Z10	X11	Y11	Z11	X12	Y12	Z12	X13	Y13	Z13	X14	Y14	Z14	X15	Y15	Z15	X16	Y16	Z16	X17	Y17	Z17	X18	Y18	Z18	X19	Y19	Z19	X20	Y20	Z20	X21	Y21	Z21	X22	Y22	Z22	X23	Y23	Z23	X24	Y24	Z24	X25	Y25	Z25	X26	Y26	Z26	X27	Y27	Z27	X28	Y28	Z28	X29	Y29	Z29	X30	Y30	Z30	X31	Y31	Z31	X32	Y32	Z32	X33	Y33	Z33	X34	Y34	Z34	X35	Y35	Z35	X36	Y36	Z36	X37	Y37	Z37	X38	Y38	Z38	X39	Y39	Z39	X40	Y40	Z40	X41	Y41	Z41	X42	Y42	Z42	

239	  2.390000	1214.387791	1063.168331	-178.929181	1062.340567	1100.785305	-367.737627	1049.444487	1101.507039	-274.215914	1198.203938	885.557558	-120.219247	1254.403777	792.438489	-135.905254	1213.702126	652.299959	-152.584936	1147.437351	894.180674	-487.752082	1168.080622	754.879289	-447.492857	1059.361052	662.765031	-452.618233	1318.343571	404.403639	-222.847129	1288.410556	294.582097	-182.961664	1325.753345	229.501877	-246.984260	939.509129	397.075272	-377.388636	876.975861	371.368101	-423.904166	837.134135	301.827777	-367.834015	1232.172094	 97.046914	-251.946966	1460.423691	157.959047	-266.271601	1454.551812	121.074433	-194.003667	676.017263	294.084344	-359.082182	803.341858	 90.923264	-322.161690	774.867938	 92.868954	-408.327515	1221.208014	1599.881346	-449.566168	1166.051717	1568.122407	-123.339561	1125.571445	1600.556639	-301.145559	1065.356492	1472.973054	-57.116357	1002.810712	1485.291282	-85.462058	986.414245	1419.534017	-53.509019	926.665408	1355.096066	-50.059111	910.928546	1365.415504	-144.174319	1119.847140	1443.286467	-557.740632	1167.786851	1376.281360	-587.474315	1157.125894	1303.598451	-603.496533	1092.009797	1290.311348	-536.768896	1012.978323	1335.485669	-56.420081	1169.617809	1306.788814	-120.954621	1144.357377	1241.607056	-103.395163	1229.004019	1298.347224	-552.272130	1324.574256	1342.625783	-405.982088	1336.413732	1272.227429	-412.757156	1198.680762	1492.600229	-549.883242	1237.873393	1516.859882	-254.715304	1226.597067	1058.023159	-436.805502	
240	  2.400000	1215.447186	1060.348383	-178.569424	1061.496655	1097.561442	-366.228172	1049.303030	1098.072589	-272.870402	1199.807557	882.213407	-120.414316	1255.036919	788.412485	-135.696233	1213.852193	648.493837	-152.056850	1148.248717	891.265751	-487.006393	1170.703010	752.135437	-446.905033	1064.003845	658.326102	-451.973885	1318.475383	401.247421	-223.459488	1289.474705	291.131640	-183.437937	1326.774604	226.446330	-247.769163	939.667594	395.380240	-378.027992	875.958567	372.796915	-424.927924	833.421542	304.583955	-369.245634	1233.915444	 93.812388	-252.220080	1461.530896	156.191453	-268.230610	1456.294000	119.296571	-195.796129	671.476490	302.932538	-360.096222	792.638998	 95.790978	-325.386045	763.483688	 99.158526	-411.300524	1220.870748	1596.196101	-448.550948	1167.939388	1564.340424	-121.396070	1126.088442	1597.583204	-299.043567	1068.124434	1468.259898	-54.413692	1005.103048	1479.749875	-81.973749	989.534301	1414.028704	-49.906781	930.614181	1348.754261	-46.164662	913.921461	1358.826434	-140.015425	1117.088156	1440.796493	-555.989898	1164.128167	1373.762830	-587.211851	1152.923326	1301.015890	-603.134566	1088.299777	1288.156552	-535.819553	1017.057865	1329.871433	-53.219949	1173.399711	1302.336854	-119.514179	1149.045856	1237.012693	-101.094992	1225.199939	1293.829216	-552.697317	1323.053028	1334.877501	-406.569496	1333.275619	1264.543297	-413.794396	1195.983536	1489.739696	-548.387323	1238.785384	1513.902964	-253.429433	1227.009724	1054.514199	-436.412826	
241	  2.410000	1216.345474	1056.420715	-178.259778	1060.471484	1093.375075	-364.428760	1049.173810	1093.634423	-271.366146	1201.031267	878.188410	-120.539283	1256.322404	784.344792	-135.061029	1215.146108	644.242993	-152.232422	1149.043133	887.508889	-486.337390	1173.369127	748.778382	-446.763312	1068.789889	653.178652	-451.619636	1317.885976	396.717027	-224.454664	1289.158804	286.731402	-183.898649	1325.315213	221.948534	-248.643953	940.934168	393.167899	-379.544051	875.933599	374.025028	-426.299165	831.000574	306.949354	-370.967143	1231.598867	 92.033691	-252.589173	1459.410221	150.566678	-269.684080	1453.413473	114.056360	-196.978025	668.318543	311.309094	-360.680150	783.849122	100.547215	-329.222917	753.666090	105.626305	-414.875966	1220.350986	1591.385007	-447.918837	1169.916791	1559.403243	-119.568229	1126.654439	1593.554872	-296.931290	1071.202578	1462.124387	-51.569007	1007.617770	1472.807845	-78.207369	993.092693	1406.981135	-46.211106	935.098520	1340.949808	-42.131240	917.286130	1350.801297	-135.685291	1113.934621	1437.142486	-554.154050	1159.760972	1369.836337	-586.622974	1147.830696	1297.199859	-602.491110	1084.112707	1284.818679	-534.394678	1021.614429	1322.695809	-49.902736	1177.564241	1296.288409	-118.034316	1153.988979	1230.865352	-98.960622	1220.688653	1287.924777	-553.181857	1321.250150	1325.176977	-407.438967	1329.899660	1254.933006	-415.278791	1192.853858	1485.758066	-546.733125	1239.763986	1509.900770	-252.137967	1227.259970	1049.899102	-436.067179	
242	  2.420000	1217.170350	1051.487515	-177.907625	1059.477134	1088.369145	-362.613612	1049.256654	1088.172668	-269.849612	1201.817683	873.444827	-120.829885	1257.810791	780.288284	-134.465677	1217.218075	639.437992	-153.003651	1149.738273	883.014921	-485.803872	1176.094363	744.834808	-447.224140	1073.678813	647.368739	-451.819576	1316.428836	390.685157	-225.469863	1286.919778	281.291033	-184.438475	1321.186726	215.861366	-249.384339	943.310690	390.347017	-381.906192	876.949176	374.838756	-427.861812	829.867496	308.774657	-372.930335	1224.849648	 92.041881	-253.086516	1453.853905	139.846037	-270.191543	1445.628833	103.537116	-197.503065	666.639166	319.019361	-360.965002	776.662619	104.867312	-333.257551	745.417757	111.778121	-418.542723	1219.574614	1585.471337	-447.428099	1171.951383	1553.355710	-117.900002	1127.204737	1588.472608	-294.835389	1074.581526	1454.619471	-48.693954	1010.377635	1464.513023	-74.194222	997.110845	1398.430339	-42.468330	940.118356	1331.752566	-37.986729	921.083546	1341.439354	-131.225273	1110.366089	1432.360721	-552.167078	1154.766452	1364.589023	-585.655289	1141.925674	1292.227288	-601.540922	1079.429041	1280.332020	-532.508040	1026.617888	1314.053525	-46.538171	1182.088792	1288.677626	-116.533175	1159.160173	1223.200266	-97.020477	1215.489930	1280.700136	-553.610181	1319.144595	1313.611734	-408.516266	1326.231732	1243.323703	-417.812243	1189.284588	1480.687323	-544.846963	1240.725312	1504.827196	-250.886110	1227.451783	1044.282998	-435.667592	
